# xmcd CD database file
#
# Track frame offsets:
#	150
#	19736
#	38187
#	62225
#	81800
#	100252
#
# Disc length: 1655 seconds
#
# Revision: 0
# Processed by: cddbd v1.5.2PL0 Copyright (c) Steve Scherf et al.
# Submitted via: CD2WAV32(JP) R3.22
#
DISCID=45067506
DTITLE=Twenty4-7 - Shake
DYEAR=2009
DGENRE=R&B
TTITLE0=Shake
TTITLE1=Strong Body ［247 Mix］
TTITLE2=My Dream
TTITLE3=Shake ［Instrumental］
TTITLE4=Strong Body ［247 Mix/Instrumental］
TTITLE5=My Dream ［Instrumental］
EXTD=
EXTT0=
EXTT1=
EXTT2=
EXTT3=
EXTT4=
EXTT5=
PLAYORDER=
